<svg version="1.1" xmlns="http://www.w3.org/2000/svg" style="display: block;" viewBox="0 0 2048 2048" width="1024" height="1024" preserveAspectRatio="none">
<path transform="translate(0,0)" fill="rgb(222,221,222)" d="M 342.234 658.327 C 379.7 657.181 423.178 658.235 460.938 658.327 L 692.062 658.8 C 890.597 657.661 1089.14 657.549 1287.67 658.463 L 1568.78 658.947 L 1655.48 658.885 C 1671.23 658.867 1691.62 658.202 1706.9 659.574 C 1708.24 660.485 1710.73 662.662 1710.74 664.398 C 1711.57 792.639 1710.75 921.251 1710.87 1049.6 C 1710.87 1055.37 1709.99 1057.76 1707.94 1061.76 C 1700.46 1063.87 1622.44 1063.02 1609.1 1063.02 L 1344.11 1062.99 L 661.199 1063.1 L 454.132 1063.21 C 420.674 1063.23 386.997 1063.43 353.532 1063.25 C 351.175 1063.24 340.47 1062.67 339.37 1061.02 C 337.544 1058.28 336.758 1048.77 336.745 1045.07 C 336.634 1015.45 336.779 985.723 336.836 956.114 L 336.794 784.497 L 336.516 702.386 C 336.468 690.425 335.908 676.041 337.069 664.075 C 337.311 661.586 340.171 659.819 342.234 658.327 z M 807.138 1044.63 L 1091.19 1044.69 C 1140.42 1044.68 1191.71 1045.42 1240.82 1044.52 L 1240.95 676.984 L 807.198 676.903 L 807.138 1044.63 z M 1260.07 1044.17 L 1692.96 1044.87 L 1692.1 677.185 L 1416.67 676.987 L 1316.71 676.987 C 1298.82 676.99 1277.71 676.498 1260.05 677.257 C 1259.29 799.561 1259.3 921.869 1260.07 1044.17 z M 355.045 1044.1 L 653.722 1044.35 L 740.314 1044.31 C 754.716 1044.28 773.595 1043.71 787.604 1044.41 C 788.353 1039.15 787.735 1019.85 787.678 1013.19 L 787.434 953.128 L 787.502 765.348 C 787.586 740.44 786.49 701.251 787.881 677.094 L 355.131 677.072 C 356.309 691.3 355.687 711.666 355.642 726.372 L 355.41 809.115 C 355.246 886.901 356.016 966.459 355.045 1044.1 z"/>
<path transform="translate(0,0)" fill="rgb(156,202,236)" d="M 807.198 676.903 L 1240.95 676.984 L 1240.82 1044.52 C 1191.71 1045.42 1140.42 1044.68 1091.19 1044.69 L 807.138 1044.63 L 807.198 676.903 z M 1087.35 969.465 C 1098.44 967.361 1108.89 959.704 1109.98 947.49 C 1111.45 930.836 1109.85 913.81 1110.18 897.084 C 1109.55 870.438 1111 841.382 1109.88 815.062 C 1102.98 805.299 1056.68 758.04 1046.7 752.144 C 1024.86 751.467 979.479 750.472 958.542 752.167 C 951.173 754.676 943.629 758.357 940.025 765.721 C 938.022 769.813 937.806 774.947 937.582 779.443 C 936.783 795.5 936.707 947.189 939.228 953 C 942.042 959.485 948.109 965.108 954.877 967.282 C 962.543 969.744 1073.68 970.339 1087.35 969.465 z"/>
<path transform="translate(0,0)" fill="rgb(156,202,236)" d="M 964.162 770.175 C 979.886 771.725 1018.66 770.735 1035.18 770.368 C 1037.98 804.113 1024.63 830.61 1071.75 827.204 C 1077.49 826.79 1086.17 827.141 1092.04 827.098 C 1094.01 865.17 1090.65 905.372 1092.46 943.73 C 1092.58 946.138 1090.76 948.889 1089.47 950.789 C 1050.81 952.957 1008.71 949.848 969.702 951.012 C 956.994 951.392 956.01 947.722 956.003 935.507 C 955.974 885.446 956.254 835.296 955.811 785.229 C 955.776 781.346 956.313 777.541 957.402 773.822 C 959.416 771.077 960.84 771.083 964.162 770.175 z"/>
<path transform="translate(0,0)" fill="rgb(156,202,236)" d="M 1052.65 779.5 C 1057 782.287 1080.22 805.032 1080.65 808.876 C 1070.59 809.318 1062.96 809.462 1052.87 809.192 C 1052.28 800.598 1051.53 787.871 1052.65 779.5 z"/>
<path transform="translate(0,0)" fill="rgb(222,221,222)" d="M 1384.78 771.248 C 1390.54 770.924 1396.85 771.081 1402.63 771.085 C 1455.84 771.195 1509.11 770.668 1562.3 771.257 C 1566.18 771.299 1574.96 772.598 1577.87 774.427 C 1582.43 777.279 1589.2 787.267 1589.5 792.505 C 1590.55 810.659 1590.12 829.309 1590.14 847.48 L 1590.15 898.536 C 1590.13 919.348 1594.4 946.12 1566.68 950.686 C 1508.39 952.451 1448.18 949.584 1389.75 950.496 C 1356.41 951.016 1360.96 913.507 1361.22 890.718 C 1361.57 859.065 1360.26 825.872 1361.98 794.201 C 1362.75 780.566 1372.91 774.196 1384.78 771.248 z M 1522.75 932.032 C 1532.43 932.053 1563.41 933.472 1570.76 929.456 C 1573.22 919.856 1573.38 796.968 1570.96 793.27 C 1568.9 790.12 1566.78 789.786 1563.36 789.344 C 1548.5 787.424 1531.9 788.969 1516.81 789.016 C 1487.81 789.107 1458.69 788.662 1429.72 789.471 C 1420.47 789.619 1389.27 788.761 1382.97 792.042 C 1381.04 796.04 1380.51 800.403 1380.19 804.792 C 1379.15 819.242 1378.54 918.141 1381.01 926.993 C 1381.45 928.537 1381.99 929.996 1383.56 930.62 C 1392.43 934.141 1503.57 931.931 1522.75 932.032 z"/>
<path transform="translate(0,0)" fill="rgb(222,221,222)" d="M 1409.67 816.957 C 1415.02 816.506 1417.87 816.376 1422.17 820.088 C 1431.82 828.412 1457.85 849.624 1459.67 861.642 C 1457.38 868.894 1429.74 894.109 1422.29 900.959 C 1419.94 902.331 1419.13 902.547 1416.63 903.521 C 1414.57 903.412 1410.65 902.734 1409.33 901.068 C 1400.7 890.135 1430.37 869.329 1437.32 862.093 L 1438.25 861.116 C 1429.46 850.706 1410.56 836.997 1406.63 824.408 C 1405.83 821.852 1408.12 819.046 1409.67 816.957 z"/>
<path transform="translate(0,0)" fill="rgb(222,221,222)" d="M 1483.09 887.406 C 1494.19 887.631 1528.37 882.509 1530.38 895.626 C 1527.81 904.01 1524.59 905.093 1516.36 904.958 C 1505.09 904.92 1471.97 908.428 1465.3 899.061 C 1464.24 887.288 1475.01 887.675 1483.09 887.406 z"/>
<path transform="translate(0,0)" fill="rgb(222,221,222)" d="M 603.388 760.176 C 605.924 759.985 608.469 759.939 611.011 760.039 C 661.14 762.116 640.02 812.265 648.958 839.668 C 651.479 847.398 668.863 850.82 674.829 857.255 C 679.554 869.188 662.169 870.285 655.536 874.037 C 646.692 878.685 646.699 892.197 646.743 901.12 C 646.882 928.93 651.767 944.696 623.66 959.974 C 614.519 963.12 596 964.69 599.526 952.564 C 604.155 936.641 628.163 952.594 627.978 922.416 C 627.829 897.951 623.629 876.868 643.123 859.686 C 618.973 837.239 631.855 819.887 627.059 791.26 C 623.931 772.586 584.61 779.856 603.388 760.176 z"/>
<path transform="translate(0,0)" fill="rgb(222,221,222)" d="M 528.012 760.29 C 533.808 759.861 538.645 759.059 542.798 763.53 C 544.286 767.154 544.108 767.508 543.854 771.543 C 539.223 779.443 524.543 777.127 521.636 781.8 C 504.802 808.863 529.458 836.945 498.648 860.617 C 525.561 882.162 511.311 900.304 516.018 929.47 C 519.44 950.676 542.609 939.242 545.472 953.409 C 542.796 960.314 536.756 961.203 530.394 961.385 C 483.104 959.272 503.189 908.156 494.073 880.352 C 490.179 868.474 473.11 873.677 468.177 861.909 C 468.844 848.484 488.839 850.337 493.149 841.273 C 506.963 812.23 479.058 768.007 528.012 760.29 z"/>
<path transform="translate(0,0)" fill="rgb(156,202,236)" d="M 1010.45 1129.81 C 1082.87 1122.37 1147.59 1175.08 1154.97 1247.51 C 1162.36 1319.93 1109.6 1384.62 1037.17 1391.94 C 964.811 1399.26 900.21 1346.57 892.837 1274.22 C 885.464 1201.87 938.108 1137.23 1010.45 1129.81 z M 989.15 1304.58 L 988.012 1315.97 L 999.275 1315.43 C 1019.46 1315.45 1040.87 1315.24 1060.94 1315.82 L 1060.89 1302.96 C 1044.66 1302.89 1025.6 1303.26 1009.6 1302.29 C 1024.86 1280.62 1061.43 1259.93 1058.75 1231.44 C 1056.95 1212.33 1039.28 1204.65 1021.94 1204.54 C 1017.09 1205.12 1014.17 1205.65 1009.43 1207.06 C 1000.05 1209.85 982.381 1228.15 989.18 1238.2 C 992.234 1240.1 992.003 1239.98 995.615 1239.99 C 1005.45 1235.91 1006.38 1207.31 1031.19 1218.55 C 1060.46 1231.8 1031.85 1259.28 1018.9 1272.58 C 1008.89 1282.86 998.997 1293.96 989.15 1304.58 z"/>
<path transform="translate(0,0)" fill="rgb(222,221,222)" d="M 1471.71 1129.17 C 1544.17 1126.83 1604.9 1183.49 1607.6 1255.93 C 1610.3 1328.38 1553.96 1389.4 1481.52 1392.46 C 1408.57 1395.54 1347.03 1338.71 1344.31 1265.74 C 1341.59 1192.78 1398.73 1131.52 1471.71 1129.17 z M 1482.49 1373.61 C 1544.72 1369.9 1592.17 1316.47 1588.49 1254.24 C 1584.81 1192.01 1531.4 1144.54 1469.17 1148.18 C 1406.9 1151.83 1359.38 1205.29 1363.06 1267.56 C 1366.74 1329.83 1420.22 1377.32 1482.49 1373.61 z"/>
<path transform="translate(0,0)" fill="rgb(222,221,222)" d="M 1468.66 1204.24 C 1507.52 1201.2 1529.03 1239.18 1494.83 1257.91 C 1502.22 1261.68 1512.19 1267.61 1514.16 1276.01 C 1525.01 1322.38 1452.08 1335.38 1437.8 1293.2 C 1436.93 1290.63 1438.16 1289.25 1439.36 1287.34 C 1442.66 1285.21 1446.98 1285.56 1451.05 1285.38 C 1453.68 1290.07 1455.74 1294.73 1458.68 1299.82 C 1471.9 1308.65 1483.94 1307.18 1495.81 1297.64 C 1498.39 1292.19 1501.24 1286.25 1499.26 1280.2 C 1493.31 1262.09 1474.03 1269.49 1462.46 1263.95 C 1461.61 1260.29 1461.36 1260.24 1462.4 1256.51 C 1467.82 1250.7 1476.82 1253.59 1484.55 1251.53 C 1500.55 1248.15 1498.93 1224.04 1485.6 1218.21 C 1468.43 1210.7 1458.13 1220.6 1451.92 1235 L 1439.85 1235.04 C 1442.89 1216.19 1449.93 1208.85 1468.66 1204.24 z"/>
<path transform="translate(0,0)" fill="rgb(222,221,222)" d="M 564.614 1129.22 C 636.904 1125.31 698.79 1180.49 703.16 1252.76 C 707.53 1325.02 652.745 1387.26 580.511 1392.09 C 507.62 1396.97 444.692 1341.58 440.283 1268.66 C 435.873 1195.74 491.667 1133.16 564.614 1129.22 z M 578.488 1373.55 C 640.68 1370 688.224 1316.71 684.682 1254.52 C 681.14 1192.33 627.854 1144.78 565.662 1148.32 C 503.466 1151.86 455.915 1205.15 459.457 1267.35 C 462.999 1329.54 516.292 1377.09 578.488 1373.55 z"/>
<path transform="translate(0,0)" fill="rgb(222,221,222)" d="M 569.006 1206.18 L 580.274 1206.01 C 579.921 1238.31 579.871 1270.61 580.125 1302.91 C 588.295 1303.07 599.35 1301.26 607.002 1303.45 C 610.589 1304.48 612.38 1311.28 609.752 1314.55 C 601.165 1315.56 543.912 1315.32 534.844 1314.64 C 533.153 1311.64 533.577 1308.49 533.547 1304.93 L 533.906 1304.27 C 537.321 1302.09 560.059 1303.18 565.59 1303.26 C 564.638 1277.94 565.521 1247.59 565.122 1221.52 C 555.057 1228.71 545.11 1235.81 534.18 1241.61 L 533.902 1226.28 C 543.609 1221.39 562.131 1208.01 569.006 1206.18 z"/>
</svg>