<svg version="1.1" xmlns="http://www.w3.org/2000/svg" style="display: block;" viewBox="0 0 2048 2048" width="1024" height="1024" preserveAspectRatio="none">
<path transform="translate(0,0)" fill="rgb(0,0,0)" d="M 1022.65 85.86 C 1027.01 85.908 1100.29 130.06 1109.39 135.385 L 1318.53 258.632 L 1551.97 396.072 C 1596.62 422.369 1647.44 450.595 1690.63 478.47 C 1688.71 500.917 1690.05 547.798 1690.04 571.51 C 1689.65 634.844 1689.85 698.18 1690.63 761.51 L 1690.84 1265.33 C 1665.76 1281.64 1635.54 1298.6 1609.51 1313.94 L 1477.91 1391.74 L 1026.48 1658.01 C 1023.61 1658.58 1022.81 1658.47 1019.68 1656.65 C 996.653 1643.19 973.539 1629.2 950.623 1615.63 L 821.552 1539.72 L 357.625 1265.6 C 358.864 1232.29 357.988 1193.33 357.992 1159.72 L 357.986 964.659 L 357.696 477.868 C 380.354 463.247 408.106 447.956 431.773 434.041 L 551.628 363.302 L 828.17 200.093 L 942.847 132.659 C 968.415 117.767 997.772 101.446 1022.65 85.86 z M 1139.07 858.788 C 1130.87 876.936 1118.97 896.166 1109.86 914.426 C 1095.01 944.023 1079.85 973.463 1064.38 1002.74 C 1057.93 1015.01 1048.07 1035.25 1041.04 1046.59 L 1041.06 1337.02 L 1041.02 1436.21 C 1041.01 1453.75 1040.56 1474.58 1041.24 1491.96 C 1089.95 1463.78 1138.35 1435.08 1186.45 1405.87 L 1243 1372.04 C 1252.49 1366.35 1264.54 1358.6 1274.07 1353.73 L 1274.27 1128.08 C 1274.31 1102.34 1273.15 1063.46 1275.78 1037.64 C 1276.15 1033.96 1292.01 1006.09 1294.86 1000.46 L 1343.53 906.4 C 1351.43 891.135 1360.7 874.087 1367.77 858.596 C 1344.3 813.915 1321.11 769.087 1298.21 724.114 C 1294.22 716.295 1274.84 681.86 1274.64 675.64 C 1273.84 650.952 1274.27 623.626 1274.28 598.676 L 1274.08 391.152 C 1236.26 366.675 1191.22 341.608 1152.01 318.235 L 1078.78 274.69 C 1067.32 267.887 1052.87 258.733 1041.32 252.567 C 1040.52 286.554 1041.01 322.127 1041.01 356.201 L 1041.07 547.627 L 1040.9 624.967 C 1040.88 632.546 1040.25 664.561 1042.13 669.384 C 1048.88 686.738 1061.59 709.703 1070.35 726.685 L 1139.07 858.788 z M 774.039 390.817 L 773.806 578.211 C 773.835 602.75 772.584 647.169 775.635 671.74 C 776.34 677.421 795.625 711.538 799.766 719.597 C 813.826 747.537 828.145 775.346 842.719 803.02 C 851.43 819.691 864.247 842.615 871.345 859.317 C 846.656 908.042 799.221 995.041 774.827 1046.63 C 773.173 1050.13 773.968 1129.39 773.978 1142.13 L 774.079 1282.91 C 774.091 1306.22 773.556 1331.56 774.163 1354.59 C 800.14 1367.64 835.231 1390.66 861.346 1405.84 C 902.173 1431.46 945.549 1454.64 986.656 1479.97 C 992.857 1483.8 1000.38 1488.42 1006.86 1491.66 C 1005.24 1386.78 1006.69 1277.74 1006.71 1172.6 L 1006.62 1093.2 C 1006.6 1081.62 1005.56 1046.76 1008.35 1037.75 C 1010.82 1029.78 1026.29 1002.39 1030.75 993.746 L 1075.92 906.571 C 1083.69 891.56 1093.19 874.379 1100.12 859.188 L 1099.59 857.919 C 1094.07 844.678 1082.7 824.296 1075.87 811.062 L 1029.49 721.368 C 1022.47 707.848 1013.31 693.68 1008.01 679.494 C 1004.45 669.951 1006.65 587.941 1006.66 570.262 L 1006.69 380.99 C 1006.69 367.518 1007.18 255.569 1005.61 253.965 C 977.251 269.625 947.587 286.857 920 303.864 C 872.319 333.258 820.798 360.351 774.039 390.817 z M 1308.83 410.724 C 1306.52 429.442 1307.33 663.609 1309.29 669.749 C 1315.07 687.863 1332.49 716.764 1341.99 734.815 L 1406.5 857.975 C 1384.44 901.632 1361.96 945.076 1339.06 988.302 C 1332.48 1000.79 1308.87 1041.45 1308.47 1052.47 C 1307.61 1076.67 1308.07 1105.55 1308.08 1130.23 L 1308.3 1334.92 C 1340.66 1314.74 1374.12 1296.15 1406.46 1276.13 L 1505.56 1216.91 C 1521.33 1207.51 1539.22 1196.1 1555.13 1187.34 L 1555.03 786.354 C 1554.99 710.828 1556.33 632.187 1555.01 557.088 C 1473.79 509.548 1389.11 459.694 1308.83 410.724 z M 492.052 557.385 L 492.011 1187.03 L 644.605 1277.59 C 675.529 1296.27 708.584 1316.38 739.978 1334.11 L 739.913 1128.83 C 739.906 1118.2 738.718 1043.02 741.255 1037.54 C 764.983 986.333 808.504 908.636 832.129 859.519 C 813.465 820.616 788.976 773.591 769.388 736.262 C 738.58 677.55 737.684 681.406 739.863 617.983 C 740.497 599.529 740.211 412.951 738.604 410.925 L 563.555 514.987 C 542.658 527.462 511.476 544.459 492.052 557.385 z"/>
<path transform="translate(0,0)" fill="rgb(0,0,0)" d="M 1084.99 330.161 C 1094.79 334.435 1121.58 351.053 1132.18 357.281 L 1230.67 415.34 C 1229.7 423.589 1230.11 441.324 1230.11 450.262 L 1230.09 513.019 L 1230.1 619.532 C 1230.11 630.489 1229.15 682.183 1231.76 687.966 C 1257.18 744.309 1292.88 803.272 1318.92 858.871 C 1312.77 873.013 1300.84 894.31 1293.38 908.598 C 1279.28 935.447 1265.43 962.428 1251.83 989.536 C 1248.39 996.304 1234.11 1020.24 1232.92 1025.57 C 1229.22 1042.19 1230.29 1077.59 1230.22 1094.89 C 1230.07 1134.54 1230.26 1173.48 1230.25 1212.74 L 1230.26 1285.82 C 1230.27 1298.42 1229.82 1316.98 1231.16 1329.07 C 1210.77 1341.61 1190.21 1353.87 1169.48 1365.85 C 1142.44 1382.87 1112.38 1398.77 1084.89 1415.36 C 1083.23 1340.65 1084.71 1265.57 1084.69 1190.83 C 1084.69 1173.13 1082.45 1065.33 1086.22 1055.03 C 1093.18 1035.99 1105.9 1016.96 1115.31 998.906 C 1139.56 952.333 1164.61 906.003 1188.08 859.038 C 1182.29 845.346 1167.18 818.157 1159.97 804.448 L 1110.44 709.606 C 1105.4 699.947 1085.03 663.469 1084.85 655.717 C 1084.09 623.247 1084.6 587.576 1084.65 555.066 L 1084.99 330.161 z M 1120.57 498.963 C 1118.39 474.853 1127.44 455.75 1153.52 451.94 C 1164.28 450.369 1170.9 454.577 1180.36 458.819 C 1184.26 460.654 1183.98 459.36 1186.22 454.833 C 1183.7 445.712 1161.08 443.014 1153.04 443.418 C 1127.73 448.119 1107.75 467.597 1111.45 496.186 C 1112.34 503.081 1119.01 516.673 1123.94 521.489 L 1125.87 521.871 C 1128.33 519.662 1129.14 519.531 1130.25 516.682 C 1125.72 509.89 1123.19 506.623 1120.57 498.963 z M 1191 523.438 C 1200.86 511.3 1205.28 499.98 1203.74 484.008 C 1202.97 475.951 1198.75 463.936 1191.66 459.505 C 1189.59 462.628 1187.99 463.594 1189.15 467.034 C 1193.6 480.179 1200.3 486.991 1193.29 501.166 C 1192.09 503.591 1185.52 515.995 1186.15 518.371 C 1186.61 520.071 1189.38 522.107 1191 523.438 z M 1153.03 496.715 C 1155.66 497.288 1159.1 498.244 1161.27 496.515 C 1168.92 490.399 1176.27 473.919 1180.74 465.378 L 1180.18 464.08 C 1171.28 469.848 1151.87 480.329 1149.23 490.004 C 1149.94 493.882 1149.7 493.434 1153.03 496.715 z"/>
<path transform="translate(0,0)" fill="rgb(0,0,0)" d="M 817.524 526.962 L 962.9 527.897 C 961.795 580.129 963.049 633.786 963.737 685.99 C 963.801 690.869 987.615 735.188 991.01 741.726 L 1051.68 858.437 L 989.959 977.49 C 984.171 988.653 963.128 1025.06 963.058 1034.23 C 962.835 1063.28 963.071 1095.03 963.08 1124.27 L 963.099 1415.75 L 952.993 1409.84 C 923.774 1391.41 892.96 1374.42 863.301 1356.67 C 848.466 1347.8 831.499 1338.35 817.574 1328.33 C 818.608 1305.56 817.919 1277.79 817.935 1254.65 L 817.971 1122.87 C 817.963 1112.48 816.758 1059.87 819.181 1054.73 C 847.451 994.804 892.315 916.95 920.064 859.284 C 894.705 808.215 868.048 758.064 842.254 707.257 C 835.828 694.6 820.981 670.268 818.488 657.931 C 817.222 651.666 817.887 625.123 817.908 616.702 C 818.135 586.788 818.007 556.873 817.524 526.962 z"/>
<path transform="translate(0,0)" fill="rgb(0,0,0)" d="M 695.208 487.895 C 698.072 489.186 696.298 499.113 696.252 503.529 C 695.597 559.946 696.662 616.452 695.955 672.861 C 695.677 695.036 704.892 704.239 714.16 723.308 C 736.381 769.027 760.797 813.601 784.05 858.791 C 779.144 871.058 766.817 892.539 760.237 905.009 C 745.478 932.779 730.991 960.691 716.776 988.743 C 714.278 993.634 697.455 1025.87 697.339 1028.93 C 694.48 1104.67 697.052 1181.97 696.922 1257.91 C 683.201 1250.54 668.051 1241.03 654.345 1233.06 C 648.336 1229.13 641.208 1224.94 634.934 1221.44 C 601.687 1202.9 569.361 1180.7 536.025 1162.55 L 536.226 582.109 C 554.706 572.225 576.294 558.525 594.754 547.554 C 628.346 527.849 661.831 507.962 695.208 487.895 z M 620.492 637.211 C 626.199 635.681 630.604 631.139 631.96 625.388 C 633.315 619.638 631.403 613.607 626.981 609.688 C 622.559 605.769 616.342 604.596 610.796 606.633 C 602.736 609.594 598.432 618.372 601.028 626.557 C 603.623 634.742 612.199 639.436 620.492 637.211 z"/>
<path transform="translate(0,0)" fill="rgb(0,0,0)" d="M 1352.1 487.362 C 1358.54 490.784 1364.95 494.609 1371.18 498.417 C 1417.85 526.968 1465.78 553.725 1512.03 582.938 L 1511.9 954.391 C 1511.9 1021.1 1510.27 1096.07 1512.33 1162.03 C 1471.46 1186.91 1430.34 1211.37 1388.97 1235.42 C 1377.85 1242.43 1363.61 1250.53 1352.04 1256.88 L 1352.01 1117.2 C 1352.01 1106.76 1351.44 1065.64 1352.77 1058.57 C 1354.05 1051.81 1375.79 1011.77 1380.29 1003 C 1405.08 954.734 1431.49 906.981 1455.76 858.441 C 1434.01 815.714 1411.89 773.179 1389.39 730.842 C 1377.69 708.62 1364.26 684.731 1353.61 662.147 C 1350.73 656.04 1352.09 616.579 1352.11 607.538 L 1352.1 487.362 z"/>
<path transform="translate(0,0)" fill="rgb(0,0,0)" d="M 913.321 1787.41 L 914.743 1787.47 C 925.379 1787.98 927.669 1789.26 934.847 1797.16 C 951.159 1790.69 1000.12 1776.24 1001.76 1803.29 C 1003.47 1831.5 1001.29 1865.73 1002.1 1894.59 C 1002.55 1910.38 1001.66 1925.98 1002.79 1941.75 C 991.101 1941.8 979.696 1941.93 968.011 1941.36 L 967.987 1817.02 C 957.727 1816.83 946.492 1817.47 936.194 1818.03 C 935.716 1846.16 936.326 1874.44 936.077 1902.58 C 935.962 1915.52 936.031 1928.51 937.283 1941.4 L 928.25 1941.7 C 919.473 1941.75 910.696 1941.71 901.921 1941.57 L 901.857 1817.11 C 892.013 1817.01 880.822 1817.71 870.909 1818.16 L 870.981 1941.77 C 859.449 1941.61 847.485 1941.25 835.993 1941.66 L 836.057 1788.53 C 842.046 1788.38 867.071 1787.37 871.262 1788.82 C 871.226 1791.99 870.814 1792.18 872.175 1794.76 C 876.516 1794.7 888.519 1791.03 893.645 1789.89 C 901.28 1788.2 905.372 1787.89 913.321 1787.41 z"/>
<path transform="translate(0,0)" fill="rgb(0,0,0)" d="M 1336.12 1705.86 L 1357.11 1705.95 L 1357.1 1795.48 C 1371.65 1790.52 1402.19 1784.43 1416.48 1791.92 C 1420.57 1794.06 1422.05 1797.75 1423.3 1802 C 1426.79 1813.9 1426.24 1900.46 1424.29 1915.32 C 1423.54 1921.07 1421.77 1925.41 1418.94 1930.46 C 1403.3 1947.4 1358.62 1941.92 1336.28 1941.58 C 1335.56 1915.7 1336.12 1887.04 1336.1 1860.98 L 1336.12 1705.86 z M 1357.09 1810.5 L 1357.17 1923.92 L 1373.57 1923.85 C 1379.27 1923.88 1400.8 1924.45 1402.04 1916.17 C 1403.61 1905.67 1405.64 1814.77 1402.6 1809.93 C 1397.61 1807.49 1391.37 1808.26 1385.73 1808.51 C 1376.27 1809.3 1366.55 1810.27 1357.09 1810.5 z"/>
<path transform="translate(0,0)" fill="rgb(0,0,0)" d="M 1554.48 1705.45 C 1558.67 1706.05 1570.71 1705.84 1575.52 1705.86 C 1576.25 1734.58 1575.51 1765.61 1575.8 1794.75 C 1590.55 1791.01 1615.9 1785.39 1630.28 1790.66 C 1634.99 1792.39 1639.22 1796.55 1640.94 1801.27 C 1644.28 1810.44 1643.85 1899.8 1642.39 1913.19 C 1641.72 1919.25 1640.06 1923.99 1637.33 1929.43 C 1636.65 1930.16 1635.97 1930.87 1635.27 1931.58 C 1619.96 1947 1575.55 1942.03 1554.08 1941.86 L 1553.92 1781.46 C 1553.91 1765.77 1552.75 1718.62 1554.48 1705.45 z M 1575.67 1810.56 C 1575.24 1848.14 1575.27 1885.73 1575.78 1923.31 L 1585.75 1923.67 C 1598.97 1923.73 1621.31 1925.75 1620.95 1909.32 C 1620.51 1889.56 1625.62 1825.99 1620.45 1810.54 C 1618.12 1808.51 1614.72 1808.29 1611.65 1808.45 C 1600.09 1809.13 1587.13 1810.21 1575.67 1810.56 z"/>
<path transform="translate(0,0)" fill="rgb(0,0,0)" d="M 268.117 1705.85 L 302.995 1705.85 C 302.451 1734.43 302.238 1768.47 302.987 1796.85 C 317.095 1791.15 364.669 1775.8 367.655 1803.2 C 369.019 1815.71 368.145 1833.58 368.134 1846.64 C 367.999 1878.34 368.061 1910.05 368.319 1941.75 C 356.864 1941.86 345.408 1941.82 333.954 1941.62 C 333.335 1915.87 333.999 1887.49 334.043 1861.5 L 333.941 1817.98 C 324.297 1817.51 312.611 1817.95 302.842 1818.13 C 301.52 1830 302.162 1850.29 302.164 1862.96 L 302.091 1941.55 C 290.711 1941.8 279.326 1941.79 267.946 1941.51 L 268.117 1705.85 z"/>
<path transform="translate(0,0)" fill="rgb(0,0,0)" d="M 414.362 1788.1 C 415.47 1788.07 416.579 1788.04 417.687 1788 C 496.731 1790.48 496.05 1771.32 495.975 1852.03 L 496.017 1941.98 C 489.574 1941.85 466.764 1943.23 462.677 1941.32 L 462.44 1937.09 C 448.84 1932.89 423.004 1952.02 403.365 1937.4 C 399.147 1931.95 397.353 1926.04 397.365 1918.99 C 397.485 1845.18 389.692 1848.4 462.571 1848.53 C 462.756 1837.23 462.52 1825.24 462.49 1813.89 L 430.861 1813.92 L 430.837 1834.54 C 420.834 1835.04 408.998 1834.78 398.858 1834.8 C 398.31 1816.86 393.345 1794.43 414.362 1788.1 z M 430.85 1915.66 C 436.745 1915.53 459.243 1915.75 462.572 1913.28 L 462.635 1912.95 C 462.36 1899.31 462.321 1885.67 462.516 1872.03 L 430.762 1872.01 C 430.628 1884.69 429.885 1903.54 430.85 1915.66 z"/>
<path transform="translate(0,0)" fill="rgb(0,0,0)" d="M 723.171 1788.19 C 723.867 1788.12 724.564 1788.06 725.262 1788.01 C 737 1787.29 789.361 1785.33 798.821 1792.77 C 804.017 1797.83 805.763 1807.43 805.993 1813.89 C 808.47 1883.37 804.873 1871.76 740.998 1872.12 L 740.996 1915.84 L 772.724 1916.09 L 772.949 1890 L 783.474 1889.89 L 806.079 1889.85 C 805.882 1901.75 808.695 1918 804.729 1929.12 C 803.094 1933.7 799.827 1937.09 795.4 1939.07 C 786.783 1942.92 727.891 1942.89 718.649 1939.33 C 714.685 1937.8 710.702 1934.01 709.045 1930.09 C 706.336 1923.69 706.943 1804.74 709.786 1798.36 C 712.439 1792.41 717.365 1790.26 723.171 1788.19 z M 741.025 1850.21 C 747.848 1849.61 766.157 1849.06 772.594 1850.09 C 772.364 1837.88 772.289 1825.66 772.37 1813.45 C 761.792 1813.13 750.614 1813.46 740.422 1813.08 C 740.415 1824.89 740.063 1838.59 741.025 1850.21 z"/>
<path transform="translate(0,0)" fill="rgb(0,0,0)" d="M 1238.38 1789.43 C 1308.15 1792.25 1302.29 1778.17 1302.06 1854.34 L 1302 1941.65 C 1295.57 1941.89 1287.91 1942.45 1281.67 1941.57 C 1281.67 1941.58 1280.53 1939.1 1280.72 1938.84 C 1281.82 1936.84 1275.23 1938.07 1274.66 1938.11 C 1253.63 1939.72 1217.64 1955.69 1212.87 1924.05 C 1214.39 1847.18 1202.47 1852.21 1280.94 1852.26 C 1280.49 1837.46 1281.17 1822.78 1280.49 1807.77 C 1275.74 1807.22 1241.3 1805.84 1237.37 1808.69 C 1235.14 1810.31 1235.89 1827.92 1235.96 1832.96 L 1214.76 1833.02 C 1214.23 1811.53 1210.16 1790.29 1238.38 1789.43 z M 1272.79 1921.84 L 1280.42 1921.25 C 1281.58 1913.43 1280.94 1878.68 1280.84 1868.96 C 1267.58 1868.94 1250.05 1868.43 1237.12 1869.22 C 1231.95 1875.65 1235.11 1907.95 1234.85 1917.24 C 1234.81 1918.44 1235.73 1921.12 1236.2 1922.33 C 1241.38 1925.69 1265.09 1922.51 1272.79 1921.84 z"/>
<path transform="translate(0,0)" fill="rgb(0,0,0)" d="M 1698.66 1789.33 C 1703.02 1789.5 1708.88 1789.49 1712.64 1789.55 C 1746.97 1790.05 1768.52 1780.8 1764.24 1826.51 C 1763.85 1830.75 1764.18 1843.92 1764.16 1849.3 L 1764.29 1941.98 C 1759.08 1941.96 1747.99 1942.8 1743.76 1941.46 L 1742.93 1938.25 C 1738.25 1937.39 1712.61 1942.46 1705.04 1942.81 C 1682.74 1943.83 1676.66 1939.09 1675.31 1916.87 C 1675.69 1845.15 1671.46 1852.16 1743.41 1852.49 C 1742.58 1837.5 1743.97 1822.75 1743.62 1807.44 C 1729.06 1806.82 1713.63 1807.08 1698.99 1807.12 C 1698.15 1816.2 1698.17 1824.04 1698.68 1833.1 C 1691.62 1832.9 1684.21 1833.01 1677.12 1833 C 1678.97 1812.98 1671.3 1791.23 1698.66 1789.33 z M 1697.57 1924.15 C 1709.11 1924.35 1724.77 1922.77 1736.56 1921.72 C 1739.61 1921.22 1741.26 1921.58 1742.87 1919.81 C 1743.49 1902.88 1743.85 1885.95 1743.96 1869.01 L 1701.1 1869.1 C 1697.21 1872.9 1696.82 1875.31 1696.95 1880.64 C 1697.29 1894.44 1696.27 1910.53 1697.57 1924.15 z"/>
<path transform="translate(0,0)" fill="rgb(0,0,0)" d="M 624.048 1745.77 C 635.756 1745.83 647.464 1745.83 659.172 1745.76 C 658.663 1759.23 659.091 1774.93 659.142 1788.56 C 666.928 1788.24 675.109 1788.29 683.069 1788 C 682.091 1797.51 682.227 1807.36 682.156 1816.95 C 673.957 1817.27 667.191 1817.61 659.022 1817.08 C 658.662 1845.91 658.388 1881.99 659.5 1910.51 C 666.033 1910.92 676.293 1910.49 683.09 1910.41 L 683.257 1931.48 C 683.305 1935.19 683.576 1937.16 682.423 1940.73 C 673 1942.39 661.578 1940.45 652.374 1941.47 C 616.235 1945.46 623.617 1912.37 623.769 1885.59 C 623.919 1863.14 623.943 1840.69 623.84 1818.24 L 607.105 1818.28 C 606.994 1808.36 607.087 1798.26 607.088 1788.33 C 612.589 1788.36 618.489 1788.15 624.026 1788.06 L 624.048 1745.77 z"/>
<path transform="translate(0,0)" fill="rgb(0,0,0)" d="M 533.022 1745.89 C 544.76 1746 556.728 1745.83 568.486 1745.77 C 568.141 1759.02 567.63 1775.86 568.939 1788.86 C 576.804 1788.45 583.677 1788.86 591.87 1788.26 L 591.97 1817.97 L 568.332 1818.01 C 568.03 1831.06 567.371 1899.6 569.25 1908.86 C 573.339 1912.12 586.167 1911.11 592.146 1911.06 L 592.204 1938.25 L 591.584 1940.58 C 585.302 1943.02 543.601 1943.01 538.821 1935.45 C 531.321 1923.6 533.023 1901.03 532.942 1886.94 C 532.823 1863.98 532.869 1841.01 533.081 1818.05 L 516.848 1817.74 C 516.41 1807.31 516.505 1798.51 516.726 1788.13 L 533.26 1788.01 C 534.467 1777 533.478 1757.1 533.022 1745.89 z"/>
<path transform="translate(0,0)" fill="rgb(0,0,0)" d="M 185.957 1745.87 L 220.907 1745.91 C 220.25 1760.15 219.933 1774.09 221.098 1788.3 L 244.325 1788.47 L 244.214 1817.94 L 220.924 1817.99 C 219.925 1843.55 219.711 1885.62 221.109 1910.91 C 227.733 1910.5 237.488 1910.89 244.335 1910.96 L 244.541 1935.75 C 244.571 1937.26 244.475 1938.59 244.4 1940.1 C 236.929 1944.41 186.216 1944.92 186.426 1926.35 C 186.572 1913.43 185.844 1899.22 185.902 1886.16 C 186.008 1863.47 186.001 1840.79 185.881 1818.11 L 168.923 1817.98 C 168.533 1808.13 168.767 1798.12 168.872 1788.26 L 185.85 1788.06 L 185.957 1745.87 z"/>
<path transform="translate(0,0)" fill="rgb(0,0,0)" d="M 1138 1741.84 L 1159.12 1741.9 L 1159.06 1789.84 C 1168.06 1789.9 1177.05 1789.68 1186.03 1789.18 L 1186.05 1807.89 C 1177.09 1807.87 1168.13 1807.89 1159.17 1807.95 C 1158.63 1844.8 1158.31 1886.85 1159.29 1923.56 C 1166.89 1923.99 1182.03 1921.36 1187.03 1926 L 1187.13 1930.75 C 1187.15 1933.64 1187.08 1935.76 1186.92 1938.65 C 1185.65 1940.45 1185.14 1941.81 1182.37 1941.9 C 1133.06 1943.76 1138.74 1939 1137.82 1894.23 C 1137.3 1869.48 1139.33 1833.97 1137.21 1809.53 L 1137.08 1808.06 C 1131.06 1807.94 1125.04 1807.87 1119.03 1807.84 C 1119 1801.22 1118.8 1796.11 1118.28 1789.51 C 1125.03 1789.68 1131.17 1789.61 1137.92 1789.45 L 1138 1741.84 z"/>
<path transform="translate(0,0)" fill="rgb(0,0,0)" d="M 1799.01 1789.02 C 1805.88 1788.85 1812.76 1788.53 1819.61 1789.03 C 1824.3 1791.99 1818.87 1789.74 1822.01 1794.83 C 1828 1794.78 1834.94 1791.42 1841.03 1790.24 C 1891.75 1780.48 1875.11 1812.26 1879.72 1840.53 C 1872.34 1840.29 1865.34 1840.56 1857.96 1840.8 C 1858.12 1832 1859.98 1816.09 1854.75 1810.11 C 1848.48 1806.74 1829.5 1810.45 1820.93 1811.22 L 1820.86 1841.5 C 1820.82 1874.31 1821.24 1908.6 1820.19 1941.28 L 1799.26 1941.44 C 1798.81 1890.63 1798.73 1839.82 1799.01 1789.02 z"/>
<path transform="translate(0,0)" fill="rgb(0,0,0)" d="M 1456.13 1840.54 C 1473.27 1839.81 1504.97 1839.73 1521.9 1840.7 L 1521.99 1860.89 C 1501.16 1861.75 1477.02 1861.15 1455.96 1861.03 L 1456.13 1840.54 z"/>
<path transform="translate(0,0)" fill="rgb(0,0,0)" d="M 1031.83 1840.09 C 1053.2 1840.84 1075.22 1840.22 1097.19 1840.98 C 1097.11 1847.56 1097.19 1854.14 1097.43 1860.72 C 1076.6 1861.45 1052.74 1860.9 1031.68 1860.99 C 1031.77 1854.02 1031.83 1847.06 1031.83 1840.09 z"/>
</svg>