<svg version="1.1" xmlns="http://www.w3.org/2000/svg" style="display: block;" viewBox="0 0 2048 2048" width="1024" height="1024" preserveAspectRatio="none">
<path transform="translate(0,0)" fill="rgb(42,41,41)" d="M 1023.05 192.69 C 1028.16 193.504 1155.82 270.336 1169.34 278.332 L 1718.01 603.606 L 1718.33 1434.88 C 1711.91 1439.35 1700.89 1445.42 1693.93 1449.58 L 1648.01 1477.36 L 1494.19 1569.92 L 1024.6 1851.12 C 1020.04 1849.45 1004.76 1839.97 999.822 1837.01 L 953.63 1809.28 L 799.443 1716.94 L 462.925 1514.68 C 419.942 1488.78 371.915 1461.74 329.917 1435.18 L 329.964 603.634 C 413.627 555.551 497.911 503.689 581.046 454.397 L 1023.05 192.69 z M 428.268 683.251 L 428.446 1155.08 L 428.537 1296.59 C 428.47 1324.26 427.574 1355.76 428.579 1382.92 L 734.151 1564.8 C 764.799 1583.25 795.848 1600.91 826.558 1619.25 C 834.874 1624.21 843.773 1629.31 851.682 1634.84 C 871.465 1645.19 895.569 1660.27 914.971 1671.84 L 986.192 1713.62 C 986.157 1692.51 986.568 1669.01 985.952 1648.07 C 939.463 1620.07 892.824 1592.31 846.039 1564.8 C 822.063 1550.65 788.601 1532.15 766.051 1517.03 C 767.634 1491.83 766.465 1453.23 766.45 1426.7 L 766.399 1278.46 C 766.398 1250.14 765.902 1220.13 766.796 1191.99 C 809.208 1136.42 850.8 1080.24 891.561 1023.45 L 766.548 855.387 C 765.584 825.445 766.639 793.905 766.38 763.816 C 765.767 692.578 767.249 620.698 765.999 549.516 C 838.855 505.35 913.449 462.679 986.07 418.225 C 986.07 398.831 986.767 374.087 985.654 355.112 L 984.458 353.941 L 621.565 568.179 L 501.298 640.043 C 477.074 654.534 452.898 669.537 428.268 683.251 z M 1619.98 1382.91 L 1619.59 1012.5 C 1620.19 939.748 1620.31 866.993 1619.95 794.24 C 1619.93 758.253 1620.56 720.038 1619.7 684.257 C 1593.84 666.615 1562.19 649.828 1535.18 633.283 C 1464.28 589.852 1389.39 548.803 1318.99 505.044 C 1317.63 525.16 1318.26 550.625 1318.29 571.095 L 1318.43 680.658 L 1318.45 801.679 C 1318.45 822.165 1317.75 849.099 1318.92 869.145 C 1341.15 899.629 1363.68 929.896 1386.5 959.939 C 1401.95 980.614 1418.25 1003.4 1434.24 1023.39 C 1398.5 1074.6 1355.04 1125.98 1319.15 1177.59 L 1318.73 1400.88 C 1318.73 1453.98 1318.12 1508.43 1318.92 1561.45 C 1357.34 1539.5 1396.63 1515.67 1434.66 1492.92 C 1496.6 1457.35 1557.84 1417.83 1619.98 1382.91 z M 1059.55 985.046 C 1045.78 993.522 1040.07 998.258 1028.15 1008.78 C 1011.24 1010.87 1002.11 1021.22 1015.01 1035.89 C 1032.04 1045.03 1038.82 1033.1 1039.38 1019.81 C 1039.54 1015.85 1059.93 991.781 1059.55 985.046 z M 1080.51 974.254 L 1071.71 983.462 C 1089.78 1007.46 1091.28 1028.99 1078.48 1055.93 C 1042.38 1054.74 1006.26 1054.51 970.15 1055.26 C 954.21 1022.31 962.173 984.236 996.98 967.817 C 1012.34 960.543 1029.97 959.715 1045.94 965.519 C 1052.76 968.052 1058.86 971.717 1064.71 976.02 L 1076.06 962.245 C 1055.64 946.998 1039.15 942.216 1013.69 944.337 C 992.028 947.412 971.758 957.923 959.022 975.985 C 916.908 1035.71 965.419 1114.34 1037.92 1102.61 C 1059.26 1099.27 1078.29 1087.31 1090.55 1069.53 C 1102.71 1052.24 1106.62 1029.68 1103.08 1009.06 C 1101.35 999.007 1093.01 977.348 1084.38 971.697 C 1081.47 972.505 1082.8 971.807 1080.51 974.254 z M 1277.22 1139.76 C 1284.71 1130.87 1292.04 1121.16 1298.89 1111.74 C 1320.4 1082.19 1343.68 1053.34 1364.64 1023.43 L 1312.49 953.917 C 1301.3 938.98 1288.08 922.154 1277.77 906.798 C 1277.07 868.039 1277.7 827.544 1277.76 788.655 L 1277.87 584.701 C 1277.87 550.744 1278.36 515.283 1277.52 481.42 C 1227.24 450.421 1176.54 420.118 1125.42 390.522 C 1112.01 382.714 1098.67 374.794 1085.4 366.765 C 1079.75 363.382 1067.26 355.522 1061.9 353.146 L 1062.05 824.895 C 1087.5 862.102 1116.19 898.734 1142.54 935.394 C 1163.61 964.697 1185.11 995.14 1207.67 1023.19 C 1160.26 1087.95 1107.02 1157.12 1061.97 1222.77 L 1062.04 1567.39 C 1061.99 1615.36 1062.9 1665.88 1062.19 1713.56 C 1094.53 1695.48 1131.86 1673.87 1163.09 1654.17 C 1201.12 1631.57 1240.34 1608.85 1277.98 1585.74 C 1276.53 1550.47 1277.62 1507.14 1277.62 1471.34 L 1277.68 1255.45 L 1277.69 1182.38 C 1277.69 1169.56 1278.09 1152.23 1277.22 1139.76 z"/>
<path transform="translate(0,0)" fill="rgb(42,41,41)" d="M 687.701 594.871 L 688.229 595.348 C 689.513 598.777 688.518 637.586 688.549 643.747 C 688.919 716.337 687.952 789.095 689.021 861.673 C 701.176 880.005 717.508 901.482 730.653 919.294 C 756.588 954.265 782.766 989.056 809.186 1023.66 C 796.919 1037.33 773.656 1069.73 761.973 1085.58 C 738.224 1117.82 710.703 1152.96 688.457 1185.94 L 688.632 1367.61 C 688.659 1399.31 689.86 1440.33 688.25 1471.49 L 634.616 1439.63 C 582.294 1407.84 527.791 1377.24 476.257 1345.46 L 476.171 720.808 C 504.115 705.274 533.662 686.826 561.327 670.358 C 603.66 645.546 645.786 620.383 687.701 594.871 z"/>
<path transform="translate(0,0)" fill="rgb(42,41,41)" d="M 1358.97 595.095 C 1363.92 597.148 1379.86 607.073 1384.98 610.13 L 1438.28 642.008 C 1479.85 666.871 1531.28 694.956 1570.96 721.178 C 1573.25 811.734 1571.82 908.355 1571.56 999.113 L 1571.78 1344.68 C 1554.16 1356.67 1528.54 1370.96 1509.78 1382.12 L 1409.42 1441.97 C 1392.73 1452.27 1375.92 1462.39 1359.01 1472.31 C 1360.41 1446.36 1359.3 1409.55 1359.28 1382.87 L 1359.19 1211.87 C 1402.93 1150.69 1453.15 1083.72 1499.21 1024.07 C 1452.14 961.894 1405.53 899.375 1359.38 836.513 C 1358.01 812.167 1359.14 775.883 1359.31 750.738 C 1359.85 698.858 1359.73 646.973 1358.97 595.095 z"/>
</svg>